<svg xmlns="http://www.w3.org/2000/svg" viewBox="0 0 32 32">
  <path d="M16 4C12 4 6 8 4 14c-1 3 0 6 2 8 1.5 1.5 3.5 2 5 1.5-.5 1.5-1 3-1 4.5h2c0-2 .5-3.5 1.5-5C15 24 17 25 20 24c3-1 5-3 6.5-6 1.5-3 1.5-6.5 0-9.5C24.5 5.5 20 4 16 4z" fill="#2D8B4E"/>
  <circle cx="10" cy="13" r="1.5" fill="white"/>
  <path d="M3 12c-1.5-.5-2.5-1-2.8-1.5-.3-.5 0-1 .8-1.2 1-.3 2.5.5 3 1" stroke="#2D8B4E" stroke-width="1.2" fill="none"/>
  <path d="M8 18c-1 1-1 3 0 4" stroke="#DC143C" stroke-width="0.8" fill="none" opacity="0.6"/>
</svg>
